<svg xmlns="http://www.w3.org/2000/svg" viewBox="0 0 253.54 500"><defs><style>.a,.d,.e,.f{fill:#fff;}.a{stroke:#231f20;}.a,.c,.f{stroke-miterlimit:10;}.b{fill:#06223d;}.c{fill:#7695ab;}.c,.f{stroke:#06223d;}.d{opacity:0.7;}</style></defs><title>Fichier 18toSmall</title><path class="a" d="M125.7,334.35a14.54,14.54,0,0,0-14.53,14.52V476.52a14.53,14.53,0,1,0,29.06,0V348.87A14.54,14.54,0,0,0,125.7,334.35Z"/><path class="b" d="M125.7,325.39a23.51,23.51,0,0,0-23.48,23.48V476.52a23.48,23.48,0,0,0,47,0V348.87A23.51,23.51,0,0,0,125.7,325.39Zm14.53,151.13a14.53,14.53,0,1,1-29.06,0V348.87a14.53,14.53,0,0,1,29.06,0Z"/><path class="a" d="M92.36,309.09A9.34,9.34,0,0,0,83,318.41V442.68a9.33,9.33,0,1,0,18.66,0V318.41A9.33,9.33,0,0,0,92.36,309.09Z"/><path class="b" d="M92.36,300.4a18,18,0,0,0-18,18V442.68a18,18,0,0,0,36,0V318.41A18,18,0,0,0,92.36,300.4Zm9.33,142.28a9.33,9.33,0,1,1-18.66,0V318.41a9.33,9.33,0,0,1,18.66,0Z"/><path class="c" d="M158.25,308.52a9.34,9.34,0,0,0-9.33,9.33V442.12a9.33,9.33,0,0,0,18.66,0V317.85A9.35,9.35,0,0,0,158.25,308.52Z"/><path class="a" d="M158.25,308.52a9.34,9.34,0,0,0-9.33,9.33V442.12a9.33,9.33,0,0,0,18.66,0V317.85A9.35,9.35,0,0,0,158.25,308.52Z"/><path class="b" d="M158.25,299.84a18,18,0,0,0-18,18V442.12a18,18,0,0,0,36,0V317.85A18,18,0,0,0,158.25,299.84Zm9.33,142.28a9.33,9.33,0,0,1-18.66,0V317.85a9.33,9.33,0,0,1,18.66,0Z"/><path class="a" d="M126.54,153.33c-62.75,0-113.8,32-113.8,71.37,0,47.43,28.67,151.69,113.86,152.53h.9c20.88,0,39.84-7.15,56.37-21.25,42.26-36.05,56.48-105.26,56.48-131.29C240.35,185.35,189.29,153.33,126.54,153.33Z"/><path class="d" d="M22,224.7c0-38.38,48.56-69.76,109.16-71.29-1.54,0-3.08-.08-4.64-.08-62.75,0-113.8,32-113.8,71.37,0,47.43,28.67,151.69,113.86,152.53h.9c1.49,0,3-.05,4.43-.12C49.81,373.15,22,271.39,22,224.7Z"/><path class="b" d="M126.54,144.74c-68.24,0-123.77,35.87-123.77,80,0,18.1,5.26,58.59,25,95.54,22.67,42.5,56.81,65.18,98.73,65.59h1c23.58,0,44.89-8,63.36-23.73,44.47-37.93,59.43-110.24,59.43-137.4C250.31,180.61,194.79,144.74,126.54,144.74ZM183.87,356c-16.53,14.1-35.49,21.25-56.37,21.25h-.9C41.41,376.39,12.74,272.13,12.74,224.7c0-39.35,51.05-71.37,113.8-71.37s113.81,32,113.81,71.37C240.35,250.73,226.13,319.94,183.87,356Z"/><path class="a" d="M169.11,306.57c11.28-15.43,18.57-34.84,18.57-49.43,0-28.21-27.72-51.16-61.79-51.16s-61.8,23-61.8,51.16c0,14.59,7.29,34,18.57,49.43,7.41,10.14,22.88,27.15,43.23,27.15S161.71,316.71,169.11,306.57Z"/><path class="b" d="M125.89,196.7c-39.2,0-71.08,27.11-71.08,60.44,0,33.91,31.84,85.87,71.08,85.87s71.08-52,71.08-85.87C197,223.81,165.08,196.7,125.89,196.7ZM82.66,306.57c-11.28-15.43-18.57-34.84-18.57-49.43,0-28.21,27.72-51.16,61.8-51.16s61.79,23,61.79,51.16c0,14.59-7.29,34-18.57,49.43-7.4,10.14-22.87,27.15-43.22,27.15S90.07,316.71,82.66,306.57Z"/><path class="a" d="M183.34,349.05a10.09,10.09,0,0,0-10.07,10.08V378.9a10.08,10.08,0,0,0,20.15,0V359.13A10.09,10.09,0,0,0,183.34,349.05Z"/><path class="b" d="M183.34,340.1a19,19,0,0,0-19,19V378.9a19,19,0,1,0,38.05,0V359.13A19,19,0,0,0,183.34,340.1Zm10.08,38.8a10.08,10.08,0,0,1-20.15,0V359.13a10.08,10.08,0,1,1,20.15,0Z"/><path class="a" d="M154.24,366a10.09,10.09,0,0,0-10.07,10.08v3.17a10.08,10.08,0,0,0,20.15,0v-3.17A10.09,10.09,0,0,0,154.24,366Z"/><path class="b" d="M154.24,357.08a19.06,19.06,0,0,0-19,19v3.17a19,19,0,0,0,38.06,0v-3.17A19.06,19.06,0,0,0,154.24,357.08Zm10.08,22.2a10.08,10.08,0,0,1-20.15,0v-3.17a10.08,10.08,0,1,1,20.15,0Z"/><path class="b" d="M106.64,257.34a7.41,7.41,0,0,0,5-2h-10A7.4,7.4,0,0,0,106.64,257.34Z"/><path class="b" d="M106.64,263.34c7.37,0,13.42-6.16,14.08-14H92.57C93.23,257.18,99.28,263.34,106.64,263.34Zm0-6a7.4,7.4,0,0,1-5-2h10A7.41,7.41,0,0,1,106.64,257.34Z"/><path class="b" d="M140.13,255.31a7.16,7.16,0,0,0,10,0Z"/><path class="b" d="M145.13,263.34c7.37,0,13.41-6.16,14.07-14H131.05C131.71,257.18,137.76,263.34,145.13,263.34Zm-5-8h10a7.16,7.16,0,0,1-10,0Z"/><path class="b" d="M106.64,310.33a7.41,7.41,0,0,0,5-2h-10A7.4,7.4,0,0,0,106.64,310.33Z"/><path class="b" d="M106.64,316.33c7.37,0,13.42-6.16,14.08-14H92.57C93.23,310.17,99.28,316.33,106.64,316.33Zm0-6a7.4,7.4,0,0,1-5-2h10A7.41,7.41,0,0,1,106.64,310.33Z"/><path class="b" d="M140.13,308.3a7.16,7.16,0,0,0,10,0Z"/><path class="b" d="M145.13,316.33c7.37,0,13.41-6.16,14.07-14H131.05C131.71,310.17,137.76,316.33,145.13,316.33Zm-5-8h10a7.16,7.16,0,0,1-10,0Z"/><path class="b" d="M126.6,282.28a7.44,7.44,0,0,0,5-2h-10A7.44,7.44,0,0,0,126.6,282.28Z"/><path class="b" d="M140.67,274.25H112.52c.67,7.87,6.71,14,14.08,14S140,282.12,140.67,274.25Zm-14.07,8a7.44,7.44,0,0,1-5-2h10A7.44,7.44,0,0,1,126.6,282.28Z"/><path class="b" d="M157.24,280.25a7.16,7.16,0,0,0,10,0Z"/><path class="b" d="M148.16,274.25c.66,7.87,6.71,14,14.07,14s13.42-6.16,14.08-14Zm9.08,6h10a7.16,7.16,0,0,1-10,0Z"/><path class="b" d="M84.54,280.25a7.17,7.17,0,0,0,10,0Z"/><path class="b" d="M103.62,274.25H75.46c.67,7.87,6.71,14,14.08,14S103,282.12,103.62,274.25Zm-19.08,6h10a7.17,7.17,0,0,1-10,0Z"/><path class="a" d="M67.57,349.05A10.09,10.09,0,0,0,57.5,359.13V378.9a10.08,10.08,0,0,0,20.15,0V359.13A10.09,10.09,0,0,0,67.57,349.05Z"/><path class="d" d="M62.14,378.9V359.13a10.1,10.1,0,0,1,7.76-9.8,10.54,10.54,0,0,0-2.33-.28A10.09,10.09,0,0,0,57.5,359.13V378.9A10.08,10.08,0,0,0,67.57,389a10,10,0,0,0,2.33-.28A10.09,10.09,0,0,1,62.14,378.9Z"/><path class="b" d="M67.57,340.1a19,19,0,0,0-19,19V378.9a19,19,0,1,0,38.05,0V359.13A19,19,0,0,0,67.57,340.1Zm10.08,38.8a10.08,10.08,0,0,1-20.15,0V359.13a10.08,10.08,0,1,1,20.15,0Z"/><path class="a" d="M96.68,366A10.09,10.09,0,0,0,86.6,376.11v3.17a10.08,10.08,0,0,0,20.15,0v-3.17A10.09,10.09,0,0,0,96.68,366Z"/><path class="d" d="M91.24,379.28v-3.17a10.1,10.1,0,0,1,7.76-9.8,10.45,10.45,0,0,0-2.32-.28A10.09,10.09,0,0,0,86.6,376.11v3.17a10.09,10.09,0,0,0,10.08,10.07,9.89,9.89,0,0,0,2.32-.28A10.09,10.09,0,0,1,91.24,379.28Z"/><path class="b" d="M96.68,357.08a19,19,0,0,0-19,19v3.17a19,19,0,1,0,38.05,0v-3.17A19,19,0,0,0,96.68,357.08Zm10.07,22.2a10.08,10.08,0,0,1-20.15,0v-3.17a10.08,10.08,0,1,1,20.15,0Z"/><path class="a" d="M126.54,228.32c54.42,0,98.7-42.21,98.7-94.11a90.34,90.34,0,0,0-14.92-49.69,190.35,190.35,0,0,1-34.95,5.6,276.63,276.63,0,0,1-46.87-.6L127,89.35c-.14,0-.27-.06-.41-.09s-.27.07-.41.09l-1.54.17a276.63,276.63,0,0,1-46.87.6,190.33,190.33,0,0,1-35-5.6,90.34,90.34,0,0,0-14.92,49.69C27.84,186.11,72.12,228.32,126.54,228.32Z"/><path class="b" d="M225.24,134.21c0,51.9-44.28,94.11-98.7,94.11s-98.7-42.21-98.7-94.11A90.34,90.34,0,0,1,42.76,84.52c-3.29-.88-6.46-1.86-9.48-2.92a99.08,99.08,0,0,0-15.13,52.61c0,57,48.62,103.36,108.39,103.36s108.4-46.37,108.4-103.36A99.09,99.09,0,0,0,219.8,81.6q-4.53,1.59-9.48,2.92A90.34,90.34,0,0,1,225.24,134.21Z"/><path class="d" d="M37.13,134.21A91.52,91.52,0,0,1,64.8,68.94c8.5-8.41,3.62-11.74-5.89-3.21-19.12,17.18-31.07,41.52-31.07,68.48,0,51.9,44.28,94.11,98.7,94.11,1.56,0,3.1,0,4.64-.11C78.91,225.89,37.13,184.62,37.13,134.21Z"/><path class="a" d="M242.51,13.18c-5.75,11.57-18.73,32.94-37.44,36.16A138.37,138.37,0,0,1,188,50.65c-30.21,1.15-53.66,4.61-56.27,35.94,15.21,1.34,73.8,4.54,98.87-22.47C250.44,42.72,246.54,23,242.51,13.18Z"/><path class="e" d="M182.75,54.69a138.57,138.57,0,0,0,17.07-1.8,34.12,34.12,0,0,0,13.41-6.2,31,31,0,0,1-8.16,2.65A138.37,138.37,0,0,1,188,50.65c-22,.84-40.42,2.91-49.81,16.09C148.16,58,164.16,55.94,182.75,54.69Z"/><path class="a" d="M11,13.18c5.75,11.57,18.73,32.94,37.44,36.16a138.52,138.52,0,0,0,17.1,1.31c30.21,1.15,53.66,4.61,56.27,35.94C106.63,87.93,48,91.13,23,64.12,3.1,42.72,7,23,11,13.18Z"/><path class="b" d="M245.4,1.75A4,4,0,0,0,243.05.09a3.86,3.86,0,0,0-4.42,2.49c-.13.35-13.73,34.83-34.79,38.46a133.71,133.71,0,0,1-16.15,1.2c-13.17.51-29.9,1.14-42.95,8.32a36.89,36.89,0,0,1-35.94,0c-13-7.18-29.78-7.81-42.95-8.32A133.53,133.53,0,0,1,49.71,41C28.64,37.41,15,2.93,14.91,2.58A3.86,3.86,0,0,0,10.49.09,4,4,0,0,0,8.14,1.75C0,13.24-8.5,42.11,17.45,70.07c13.33,14.36,35.8,22.84,66.79,25.19a234.31,234.31,0,0,0,40.83-.53l1.34-.15c.13,0,.24-.06.36-.09s.24.07.36.09l1.34.15a234.31,234.31,0,0,0,40.83.53c31-2.35,53.46-10.83,66.79-25.19C262,42.11,253.57,13.24,245.4,1.75ZM23,64.12C3.1,42.72,7,23,11,13.18c5.75,11.57,18.73,32.94,37.44,36.16a138.52,138.52,0,0,0,17.1,1.31c30.21,1.15,53.66,4.61,56.27,35.94C106.63,87.93,48,91.13,23,64.12Zm207.6,0c-25.07,27-83.66,23.81-98.87,22.47C134.31,55.26,157.76,51.8,188,50.65a138.37,138.37,0,0,0,17.1-1.31c18.71-3.22,31.69-24.59,37.44-36.16C246.54,23,250.44,42.72,230.57,64.12Z"/><ellipse class="f" cx="173.04" cy="129.66" rx="29.49" ry="27.04" transform="translate(-43.18 127.82) rotate(-36.36)"/><path class="b" d="M209.94,114.22C202.87,95,180.55,86.34,160.21,94.85s-31.15,31.05-24.07,50.25,29.39,27.88,49.74,19.37S217,133.41,209.94,114.22Zm-27.49,41c-14.92,6.25-31.28-.13-36.47-14.2s2.73-30.61,17.65-36.85,31.28.13,36.47,14.21S197.38,148.94,182.45,155.18Z"/><path class="b" d="M187.45,131c.66-8.41-5.23-15.81-13.11-16.51s-14.84,5.57-15.5,14,5.23,15.81,13.12,16.51S186.8,139.36,187.45,131Z"/><ellipse class="f" cx="79.04" cy="129.66" rx="27.04" ry="29.49" transform="translate(-72.23 116.45) rotate(-53.64)"/><path class="b" d="M66.21,164.47c20.34,8.51,42.66-.18,49.73-19.37s-3.71-41.74-24.06-50.25S49.22,95,42.14,114.22,45.86,156,66.21,164.47ZM52,118.34c5.19-14.08,21.55-20.45,36.47-14.21S111.29,126.9,106.1,141s-21.55,20.45-36.47,14.2S46.79,132.41,52,118.34Z"/><path class="b" d="M64.63,131c-.65-8.41,5.23-15.81,13.12-16.51s14.84,5.57,15.49,14S88,144.23,80.12,144.93,65.29,139.36,64.63,131Z"/><path class="a" d="M142.53,160.61l-15.86-19.37a1.47,1.47,0,0,0-1.13-.58,1.49,1.49,0,0,0-1.13.58l-15.85,19.37a2.56,2.56,0,0,0-.23,2.73l15.85,30.11a1.46,1.46,0,0,0,2.72,0l15.86-30.11A2.6,2.6,0,0,0,142.53,160.61Z"/><path class="b" d="M149.77,152.6l-15.85-19.36a10.47,10.47,0,0,0-16.75,0L101.31,152.6a15.65,15.65,0,0,0-1.51,16.8l15.85,30.11c2.14,4.07,5.84,6.49,9.89,6.49s7.76-2.42,9.89-6.49l15.86-30.11A15.65,15.65,0,0,0,149.77,152.6Zm-24.23,41.78a1.57,1.57,0,0,1-1.36-.93l-15.85-30.11a2.56,2.56,0,0,1,.23-2.73l15.85-19.37a1.49,1.49,0,0,1,1.13-.58,1.47,1.47,0,0,1,1.13.58l15.86,19.37a2.6,2.6,0,0,1,.23,2.73L126.9,193.45A1.56,1.56,0,0,1,125.54,194.38Z"/></svg>